<?xml version="1.0" standalone="no"?>
<!DOCTYPE svg PUBLIC "-//W3C//DTD SVG 20010904//EN"
 "http://www.w3.org/TR/2001/REC-SVG-20010904/DTD/svg10.dtd">
<svg version="1.0" xmlns="http://www.w3.org/2000/svg"
 width="2084.000000pt" height="1291.000000pt" viewBox="0 0 2084.000000 1291.000000"
 preserveAspectRatio="xMidYMid meet">

<g transform="translate(0.000000,1291.000000) scale(0.100000,-0.100000)"
fill="#000000" stroke="none">
<path d="M14938 10487 l-568 -302 0 -52 0 -53 575 0 575 0 0 355 c0 195 -3
355 -7 355 -5 0 -263 -136 -575 -303z"/>
<path d="M18375 10725 l-120 -65 -1152 0 -1153 0 0 -235 0 -235 705 0 705 0
-2 -1091 -3 -1092 -142 -76 -142 -76 145 -3 144 -3 0 -214 0 -215 -555 0 -555
0 0 -75 0 -75 -536 0 -537 0 -136 -72 -136 -73 222 -5 c122 -3 225 -8 228 -12
4 -3 -110 -8 -252 -10 l-258 -3 -75 -42 -75 -43 160 -1 c305 -3 329 -14 45
-21 l-265 -6 -165 -88 -165 -89 1402 -3 1401 -2 489 261 c268 143 526 282 573
307 l85 47 -402 5 -402 5 398 213 398 212 257 0 256 0 0 1405 0 1405 -125 0
-125 0 0 65 c0 36 -3 65 -7 65 -5 0 -62 -30 -128 -65z"/>
<path d="M10558 10653 c6 -2 18 -2 25 0 6 3 1 5 -13 5 -14 0 -19 -2 -12 -5z"/>
<path d="M10392 10624 c-315 -93 -651 -411 -848 -803 -39 -77 -62 -109 -138
-185 -77 -77 -99 -106 -139 -186 -74 -150 -81 -256 -23 -367 27 -52 40 -71
189 -275 98 -135 98 -135 140 -136 75 -3 158 -54 275 -168 l107 -104 55 6 c73
8 152 46 185 90 81 106 120 260 119 469 0 134 -3 160 -28 240 -33 109 -90 244
-145 344 l-41 74 43 -7 c414 -67 681 -73 852 -19 123 39 272 144 336 237 13
20 28 36 32 36 16 0 138 -269 187 -415 51 -151 119 -410 141 -540 11 -64 13
-67 21 -40 17 62 27 318 18 480 -12 198 -21 247 -70 352 -39 83 -60 118 -158
256 l-56 77 0 118 c-1 109 -3 120 -28 164 -61 103 -209 195 -394 245 -91 25
-114 27 -294 27 -169 0 -206 -3 -275 -22 -107 -29 -280 -116 -390 -196 -150
-109 -153 -110 -76 -36 162 156 309 244 484 290 56 15 64 19 37 19 -19 0 -72
-11 -118 -25z m-173 -1319 c61 -156 75 -235 68 -389 -8 -184 -47 -307 -123
-393 l-33 -38 30 58 c59 110 93 399 69 577 -10 73 -46 235 -66 296 -17 55 20
-22 55 -111z m-954 -22 c0 -94 2 -101 42 -185 50 -105 140 -261 199 -345 24
-34 44 -65 44 -69 0 -31 -219 286 -271 392 -37 74 -47 161 -29 247 6 31 12 57
13 57 1 0 2 -44 2 -97z"/>
<path d="M11286 9250 c-36 -11 -76 -48 -76 -71 0 -57 35 -75 166 -84 95 -7
103 -6 123 14 80 80 -75 182 -213 141z"/>
<path d="M11117 9158 c18 -77 63 -229 118 -398 51 -156 115 -364 115 -374 0
-1 -26 1 -57 4 -63 8 -83 4 -83 -14 0 -6 11 -47 25 -91 14 -44 25 -88 25 -97
0 -39 -131 -43 -239 -8 -39 12 -74 20 -77 17 -3 -3 -8 -24 -11 -46 -6 -41 -5
-41 28 -41 44 0 118 -37 131 -66 16 -34 31 -30 76 21 22 25 45 45 52 45 32 0
90 25 95 40 5 15 -16 125 -31 164 -5 14 2 15 54 10 95 -10 95 -10 66 98 -97
357 -245 758 -279 758 -8 0 -11 -8 -8 -22z"/>
<path d="M10667 8985 c-75 -28 -127 -82 -127 -133 0 -28 37 -56 73 -55 51 1
205 77 219 107 33 73 -61 119 -165 81z"/>
<path d="M11362 8897 c-11 -12 -24 -41 -28 -63 -14 -90 55 -225 115 -223 l26
0 -25 10 c-25 10 -25 11 15 25 22 7 41 14 41 14 7 1 34 73 34 92 0 120 -114
213 -178 145z"/>
<path d="M10717 8749 c-31 -24 -50 -83 -41 -130 19 -100 90 -153 157 -118 21
12 21 12 4 -15 -23 -34 -5 -34 22 0 42 54 23 194 -34 251 -38 38 -71 42 -108
12z"/>
<path d="M9605 8464 c28 -15 74 -49 103 -78 68 -65 186 -259 123 -202 -29 27
-83 31 -122 10 l-34 -19 57 -5 c48 -4 63 -11 93 -40 20 -19 48 -56 63 -82 15
-27 33 -48 40 -48 33 0 -4 170 -60 267 -67 119 -200 224 -282 223 -30 -1 -29
-2 19 -26z"/>
<path d="M11055 7921 c-3 -5 -22 -15 -42 -22 -31 -10 -41 -9 -70 6 -43 24 -56
10 -20 -21 38 -32 86 -32 126 2 31 26 40 44 22 44 -6 0 -12 -4 -16 -9z"/>
<path d="M10285 7344 c130 -123 264 -219 404 -288 80 -41 300 -118 312 -110
12 7 35 95 52 192 l14 82 -51 -7 c-85 -13 -266 -7 -354 11 -112 23 -240 69
-342 123 l-85 44 50 -47z"/>
<path d="M9627 6924 c-3 -4 -1 -16 5 -28 53 -100 541 -860 573 -892 8 -9 23
-30 32 -47 31 -62 230 -345 243 -346 3 -1 45 76 94 169 l88 170 47 0 c57 0
155 24 196 49 l30 18 123 -119 c68 -65 128 -118 133 -118 16 0 9 313 -12 615
-12 160 -23 317 -25 349 -3 33 -7 62 -9 65 -26 26 -31 -167 -15 -577 7 -177
11 -325 8 -327 -2 -3 -84 67 -182 155 -97 88 -181 162 -186 165 -11 7 -44 -51
-176 -309 l-112 -219 -182 274 c-248 372 -655 959 -664 959 -2 0 -6 -3 -9 -6z
m1263 -865 c0 -13 -82 -40 -141 -46 -32 -3 -59 -4 -59 -1 0 3 19 45 41 94 l42
88 58 -65 c32 -35 58 -67 59 -70z"/>
<path d="M11384 5920 c116 -438 267 -1164 343 -1640 15 -96 23 -123 51 -164
18 -27 31 -51 28 -53 -12 -12 -285 265 -444 450 -250 292 -351 424 -375 489
-26 72 -98 187 -146 232 -42 40 -39 19 9 -65 22 -38 36 -68 32 -65 -4 2 -48
57 -97 120 -180 231 -88 73 155 -269 228 -320 442 -585 614 -763 129 -133 196
-188 248 -203 162 -48 864 -82 1519 -73 l316 4 14 -63 14 -62 75 1 c58 0 94 8
160 32 132 48 250 65 410 59 164 -7 260 -27 495 -103 405 -129 478 -144 850
-174 443 -35 589 -66 672 -143 81 -73 31 -203 -104 -274 -116 -61 -223 -79
-583 -98 -292 -15 -391 -26 -480 -51 -80 -23 -200 -74 -200 -86 0 -5 8 -7 18
-4 9 3 82 19 162 37 129 29 163 33 306 33 89 1 160 4 158 7 -2 3 63 9 144 12
183 8 302 33 427 88 172 75 235 144 235 256 0 172 -184 242 -750 288 -337 28
-411 43 -787 165 -306 100 -354 110 -540 117 -84 3 -153 9 -153 13 0 39 -176
949 -185 958 -3 3 -8 2 -12 -1 -7 -8 50 -408 108 -741 21 -126 38 -230 36
-231 -1 -1 -38 -7 -82 -14 -44 -7 -123 -29 -175 -48 -106 -39 -97 -37 -162
-35 -45 2 -48 4 -48 30 0 53 53 47 -610 77 -52 3 -174 9 -270 15 -96 5 -186
10 -200 10 -22 0 -46 35 -210 310 l-185 311 -35 -6 c-19 -3 -46 -8 -60 -11
-22 -5 -19 0 18 33 l42 38 -381 635 c-209 349 -383 637 -386 640 -3 3 -3 -6 1
-20z"/>
<path d="M16183 5499 c-55 -117 -176 -226 -348 -311 -38 -20 -140 -63 -225
-98 -85 -34 -161 -68 -169 -75 -10 -10 -11 -20 -3 -46 47 -147 63 -471 30
-614 -23 -98 -54 -177 -94 -236 -66 -98 -33 -93 43 7 101 132 143 278 143 496
0 122 -20 269 -45 330 -8 20 -13 17 186 101 169 71 268 129 349 204 80 74 120
134 150 222 29 87 20 98 -17 20z"/>
<path d="M16880 4969 c-270 -194 -488 -273 -845 -310 -66 -6 -124 -16 -130
-20 -15 -15 266 -10 389 6 251 33 436 122 627 302 38 36 69 69 69 74 0 20 -29
6 -110 -52z"/>
<path d="M9521 4821 c-1 -19 73 -262 111 -365 15 -43 27 -80 25 -82 -2 -2 -27
38 -57 88 -59 99 -75 101 -40 5 29 -81 70 -153 119 -208 27 -31 56 -86 94
-181 335 -822 840 -1753 1047 -1931 110 -94 371 -170 740 -216 161 -20 408
-42 459 -40 46 1 -6 15 -84 24 -232 24 -611 99 -792 156 -215 69 -261 99 -362
233 -271 361 -876 1552 -1168 2301 -88 226 -91 234 -92 216z"/>
<path d="M17080 4528 c-120 -72 -319 -170 -430 -211 -112 -42 -293 -87 -478
-121 -74 -13 -137 -27 -140 -31 -11 -12 188 3 340 25 219 32 389 88 547 181
153 90 298 209 254 209 -5 0 -46 -23 -93 -52z"/>
<path d="M17245 4025 c-74 -45 -324 -155 -442 -195 -180 -60 -308 -82 -595
-105 -43 -4 -78 -10 -78 -15 0 -15 185 -21 312 -11 217 18 381 61 553 146 93
46 297 174 309 194 12 19 -17 12 -59 -14z"/>
<path d="M13190 3772 c0 -65 77 -697 110 -897 5 -33 14 -100 20 -150 32 -271
106 -685 122 -685 5 0 6 37 3 88 -8 107 -60 526 -80 642 -7 47 -26 173 -40
280 -35 251 -115 731 -126 750 -6 10 -8 1 -9 -28z"/>
<path d="M8113 1262 l-573 -2 0 -28 c0 -15 -20 -285 -45 -600 -25 -314 -45
-574 -45 -577 0 -3 -1029 -6 -2287 -6 -1259 -1 -2841 -5 -3518 -8 l-1230 -6
1290 -10 c1580 -12 16638 -9 17855 3 l875 9 -725 3 c-399 2 -2217 6 -4040 9
l-3315 6 -174 607 -175 608 -1660 -3 c-914 -1 -1919 -3 -2233 -5z"/>
</g>
</svg>
